{
  "accessors": [
    {
      "bufferView": 2,
      "componentType": 5126,
      "count": 429,
      "max": [
        0.8221708536148071,
        0.8221708536148071,
        -0.25758039951324463
      ],
      "min": [
        -0.8221708536148071,
        -0.8221708536148071,
        -3.829566240310669
      ],
      "type": "VEC3"
    },
    {
      "bufferView": 2,
      "byteOffset": 5148,
      "componentType": 5126,
      "count": 429,
      "max": [
        1.0,
        1.0,
        0.19120775163173676
      ],
      "min": [
        -1.0,
        -1.0,
        -0.2332102507352829
      ],
      "type": "VEC3"
    },
    {
      "bufferView": 1,
      "componentType": 5126,
      "count": 429,
      "max": [
        1.0000841617584229,
        1.0028488636016846
      ],
      "min": [
        0.000717775896191597,
        -0.0001735687255859375
      ],
      "type": "VEC2"
    },
    {
      "bufferView": 0,
      "componentType": 5125,
      "count": 2304,
      "type": "SCALAR"
    },
    {
      "bufferView": 2,
      "byteOffset": 10296,
      "componentType": 5126,
      "count": 6697,
      "max": [
        0.8122210502624512,
        0.8122210502624512,
        -0.01589219644665718
      ],
      "min": [
        -0.8122210502624512,
        -0.8122210502624512,
        -4.21781587600708
      ],
      "type": "VEC3"
    },
    {
      "bufferView": 2,
      "byteOffset": 90660,
      "componentType": 5126,
      "count": 6697,
      "max": [
        0.9999890327453613,
        0.9999890327453613,
        1.0
      ],
      "min": [
        -0.9999890327453613,
        -0.9999890327453613,
        -0.992896318435669
      ],
      "type": "VEC3"
    },
    {
      "bufferView": 1,
      "byteOffset": 3432,
      "componentType": 5126,
      "count": 6697,
      "max": [
        0.8642396330833435,
        0.6433490514755249
      ],
      "min": [
        0.1566905975341797,
        0.3596075773239136
      ],
      "type": "VEC2"
    },
    {
      "bufferView": 0,
      "byteOffset": 9216,
      "componentType": 5125,
      "count": 39168,
      "type": "SCALAR"
    },
    {
      "bufferView": 2,
      "byteOffset": 171024,
      "componentType": 5126,
      "count": 890,
      "max": [
        0.8177154064178467,
        0.8177154064178467,
        -3.829566240310669
      ],
      "min": [
        -0.8177154064178467,
        -0.8177154064178467,
        -4.128142833709717
      ],
      "type": "VEC3"
    },
    {
      "bufferView": 2,
      "byteOffset": 181704,
      "componentType": 5126,
      "count": 890,
      "max": [
        0.9999696016311646,
        0.9999696016311646,
        0.8944273591041565
      ],
      "min": [
        -0.9999696016311646,
        -0.9999696016311646,
        -0.7174146175384521
      ],
      "type": "VEC3"
    },
    {
      "bufferView": 1,
      "byteOffset": 57008,
      "componentType": 5126,
      "count": 890,
      "max": [
        0.8265962600708008,
        0.977239727973938
      ],
      "min": [
        0.5818116664886475,
        -0.02580106258392334
      ],
      "type": "VEC2"
    },
    {
      "bufferView": 0,
      "byteOffset": 165888,
      "componentType": 5125,
      "count": 4704,
      "type": "SCALAR"
    },
    {
      "bufferView": 2,
      "byteOffset": 192384,
      "componentType": 5126,
      "count": 429,
      "max": [
        0.7352632284164429,
        0.7352632284164429,
        -3.9331514835357666
      ],
      "min": [
        -0.7352632284164429,
        -0.7352632284164429,
        -4.039316177368164
      ],
      "type": "VEC3"
    },
    {
      "bufferView": 2,
      "byteOffset": 197532,
      "componentType": 5126,
      "count": 429,
      "max": [
        0.8893715143203735,
        0.8893715143203735,
        -0.4571853280067444
      ],
      "min": [
        -0.8893715143203735,
        -0.8893715143203735,
        -0.7174146175384521
      ],
      "type": "VEC3"
    },
    {
      "bufferView": 1,
      "byteOffset": 64128,
      "componentType": 5126,
      "count": 429,
      "max": [
        1.0000572204589844,
        0.47658079862594604
      ],
      "min": [
        0.0001421460328856483,
        -0.0016595125198364258
      ],
      "type": "VEC2"
    },
    {
      "bufferView": 0,
      "byteOffset": 184704,
      "componentType": 5125,
      "count": 2304,
      "type": "SCALAR"
    },
    {
      "bufferView": 2,
      "byteOffset": 202680,
      "componentType": 5126,
      "count": 20873,
      "max": [
        1.7949663400650024,
        0.10294519364833832,
        1.649120569229126
      ],
      "min": [
        -1.7949663400650024,
        -0.08403230458498001,
        -1.9408117532730103
      ],
      "type": "VEC3"
    },
    {
      "bufferView": 2,
      "byteOffset": 453156,
      "componentType": 5126,
      "count": 20873,
      "max": [
        0.9439467787742615,
        1.0,
        0.9439467787742615
      ],
      "min": [
        -0.9439467787742615,
        -1.0,
        -0.9812853932380676
      ],
      "type": "VEC3"
    },
    {
      "bufferView": 1,
      "byteOffset": 67560,
      "componentType": 5126,
      "count": 20873,
      "max": [
        0.0,
        1.0
      ],
      "min": [
        0.0,
        1.0
      ],
      "type": "VEC2"
    },
    {
      "bufferView": 0,
      "byteOffset": 193920,
      "componentType": 5125,
      "count": 32976,
      "type": "SCALAR"
    },
    {
      "bufferView": 2,
      "byteOffset": 703632,
      "componentType": 5126,
      "count": 8510,
      "max": [
        5.002261161804199,
        0.0,
        3.750718355178833
      ],
      "min": [
        -5.002261161804199,
        -0.5254669785499573,
        -12.655961990356445
      ],
      "type": "VEC3"
    },
    {
      "bufferView": 2,
      "byteOffset": 805752,
      "componentType": 5126,
      "count": 8510,
      "max": [
        0.9588481187820435,
        1.0,
        0.894896388053894
      ],
      "min": [
        -1.0,
        -1.0,
        -0.8789299130439758
      ],
      "type": "VEC3"
    },
    {
      "bufferView": 1,
      "byteOffset": 234544,
      "componentType": 5126,
      "count": 8510,
      "max": [
        0.5000000596046448,
        1.0
      ],
      "min": [
        0.0,
        -1.1920928955078125e-07
      ],
      "type": "VEC2"
    },
    {
      "bufferView": 0,
      "byteOffset": 325824,
      "componentType": 5125,
      "count": 14736,
      "type": "SCALAR"
    }
  ],
  "asset": {
    "extras": {
      "author": "aaartc (https://sketchfab.com/aaartc)",
      "license": "CC-BY-4.0 (http://creativecommons.org/licenses/by/4.0/)",
      "source": "https://sketchfab.com/3d-models/lit-energy-energy-drink-by-mikhail-litvin-f78a2adc616a4d6ab1eb13f741c97b55",
      "title": "LIT ENERGY - energy drink by Mikhail Litvin"
    },
    "generator": "Sketchfab-16.59.0",
    "version": "2.0"
  },
  "bufferViews": [
    {
      "buffer": 0,
      "byteLength": 384768,
      "name": "floatBufferViews",
      "target": 34963
    },
    {
      "buffer": 0,
      "byteLength": 302624,
      "byteOffset": 384768,
      "byteStride": 8,
      "name": "floatBufferViews",
      "target": 34962
    },
    {
      "buffer": 0,
      "byteLength": 907872,
      "byteOffset": 687392,
      "byteStride": 12,
      "name": "floatBufferViews",
      "target": 34962
    }
  ],
  "buffers": [
    {
      "byteLength": 1595264,
      "uri": "scene.bin"
    }
  ],
  "extensionsUsed": [
    "KHR_materials_specular"
  ],
  "images": [
    {
      "uri": "textures/Material.004_baseColor.png"
    },
    {
      "uri": "textures/Material.006_baseColor.png"
    }
  ],
  "materials": [
    {
      "doubleSided": true,
      "extensions": {
        "KHR_materials_specular": {
          "specularColorFactor": [
            1.0,
            1.0,
            1.0
          ],
          "specularFactor": 0.6
        }
      },
      "name": "Material.004",
      "pbrMetallicRoughness": {
        "baseColorTexture": {
          "index": 0
        },
        "metallicFactor": 0.8,
        "roughnessFactor": 0.25
      }
    },
    {
      "doubleSided": true,
      "name": "Material",
      "pbrMetallicRoughness": {
        "roughnessFactor": 0.25
      }
    },
    {
      "doubleSided": true,
      "name": "Material.005",
      "pbrMetallicRoughness": {
        "baseColorFactor": [
          0.0,
          0.0,
          0.0,
          1.0
        ],
        "metallicFactor": 0.8,
        "roughnessFactor": 0.25
      }
    },
    {
      "doubleSided": true,
      "name": "Material.006",
      "pbrMetallicRoughness": {
        "baseColorTexture": {
          "index": 1
        },
        "metallicFactor": 0.8,
        "roughnessFactor": 0.25
      }
    },
    {
      "doubleSided": true,
      "name": "Material.002",
      "pbrMetallicRoughness": {
        "roughnessFactor": 0.4
      }
    },
    {
      "doubleSided": true,
      "name": "Material.001",
      "pbrMetallicRoughness": {
        "roughnessFactor": 0.4
      }
    }
  ],
  "meshes": [
    {
      "name": "Object_0",
      "primitives": [
        {
          "attributes": {
            "NORMAL": 1,
            "POSITION": 0,
            "TEXCOORD_0": 2
          },
          "indices": 3,
          "material": 0,
          "mode": 4
        }
      ]
    },
    {
      "name": "Object_1",
      "primitives": [
        {
          "attributes": {
            "NORMAL": 5,
            "POSITION": 4,
            "TEXCOORD_0": 6
          },
          "indices": 7,
          "material": 1,
          "mode": 4
        }
      ]
    },
    {
      "name": "Object_2",
      "primitives": [
        {
          "attributes": {
            "NORMAL": 9,
            "POSITION": 8,
            "TEXCOORD_0": 10
          },
          "indices": 11,
          "material": 2,
          "mode": 4
        }
      ]
    },
    {
      "name": "Object_3",
      "primitives": [
        {
          "attributes": {
            "NORMAL": 13,
            "POSITION": 12,
            "TEXCOORD_0": 14
          },
          "indices": 15,
          "material": 3,
          "mode": 4
        }
      ]
    },
    {
      "name": "Object_4",
      "primitives": [
        {
          "attributes": {
            "NORMAL": 17,
            "POSITION": 16,
            "TEXCOORD_0": 18
          },
          "indices": 19,
          "material": 4,
          "mode": 4
        }
      ]
    },
    {
      "name": "Object_5",
      "primitives": [
        {
          "attributes": {
            "NORMAL": 21,
            "POSITION": 20,
            "TEXCOORD_0": 22
          },
          "indices": 23,
          "material": 5,
          "mode": 4
        }
      ]
    }
  ],
  "nodes": [
    {
      "children": [
        1
      ],
      "matrix": [
        0.0012173147738096801,
        -9.362834832145881e-17,
        0.4216645946118369,
        0.0,
        0.4216645946118369,
        2.7029817801997427e-19,
        -0.0012173147738096801,
        0.0,
        0.0,
        0.42166635394096375,
        9.362873897099971e-17,
        0.0,
        0.0,
        0.0,
        0.0,
        1.0
      ],
      "name": "Sketchfab_model"
    },
    {
      "children": [
        2
      ],
      "name": "root"
    },
    {
      "children": [
        3
      ],
      "matrix": [
        1.0,
        0.0,
        0.0,
        0.0,
        0.0,
        2.220446049250313e-16,
        1.0,
        0.0,
        0.0,
        -1.0,
        2.220446049250313e-16,
        0.0,
        0.0,
        0.0,
        0.0,
        1.0
      ],
      "name": "GLTF_SceneRootNode"
    },
    {
      "children": [
        4,
        5,
        6,
        7,
        8,
        10
      ],
      "matrix": [
        1.0,
        0.0,
        0.0,
        0.0,
        0.0,
        0.0,
        1.0,
        0.0,
        0.0,
        -1.0,
        0.0,
        0.0,
        0.0,
        0.0,
        0.0,
        1.0
      ],
      "name": "Can_2"
    },
    {
      "mesh": 0,
      "name": "Object_4"
    },
    {
      "mesh": 1,
      "name": "Object_5"
    },
    {
      "mesh": 2,
      "name": "Object_6"
    },
    {
      "mesh": 3,
      "name": "Object_7"
    },
    {
      "children": [
        9
      ],
      "matrix": [
        0.3525291085243225,
        0.0,
        -0.0,
        0.0,
        -0.0,
        0.0,
        -0.3525291085243225,
        0.0,
        0.0,
        0.3525291085243225,
        0.0,
        0.0,
        0.0,
        0.05952352657914162,
        -4.177667140960693,
        1.0
      ],
      "name": "Cap_0"
    },
    {
      "mesh": 4,
      "name": "Object_9"
    },
    {
      "children": [
        11
      ],
      "matrix": [
        0.040084585547447205,
        0.0,
        -0.0,
        0.0,
        -0.0,
        -3.378877824851729e-09,
        -0.040084585547447066,
        0.0,
        0.0,
        0.040084585547447066,
        -3.378877824851729e-09,
        0.0,
        0.0,
        0.048334065824747086,
        -4.185013771057129,
        1.0
      ],
      "name": "Opener_1"
    },
    {
      "mesh": 5,
      "name": "Object_11"
    }
  ],
  "samplers": [
    {
      "magFilter": 9729,
      "minFilter": 9987,
      "wrapS": 10497,
      "wrapT": 10497
    }
  ],
  "scene": 0,
  "scenes": [
    {
      "name": "Sketchfab_Scene",
      "nodes": [
        0
      ]
    }
  ],
  "textures": [
    {
      "sampler": 0,
      "source": 0
    },
    {
      "sampler": 0,
      "source": 1
    }
  ]
}
