{
  "accessors": [
    {
      "bufferView": 2,
      "componentType": 5126,
      "count": 4220,
      "max": [
        6.086731433868408,
        11.594812393188477,
        6.545925140380859
      ],
      "min": [
        -6.278980255126953,
        -0.01521456241607666,
        -6.06959342956543
      ],
      "type": "VEC3"
    },
    {
      "bufferView": 2,
      "byteOffset": 50640,
      "componentType": 5126,
      "count": 4220,
      "max": [
        0.9999186396598816,
        1.0,
        0.9996616244316101
      ],
      "min": [
        -0.9996616244316101,
        -1.0,
        -0.9996569156646729
      ],
      "type": "VEC3"
    },
    {
      "bufferView": 1,
      "componentType": 5126,
      "count": 4220,
      "max": [
        0.9974650144577026,
        0.9875795841217041
      ],
      "min": [
        0.005954999942332506,
        0.005774021148681641
      ],
      "type": "VEC2"
    },
    {
      "bufferView": 1,
      "byteOffset": 33760,
      "componentType": 5126,
      "count": 4220,
      "max": [
        0.9974650144577026,
        0.9875795841217041
      ],
      "min": [
        0.005954999942332506,
        0.005774021148681641
      ],
      "type": "VEC2"
    },
    {
      "bufferView": 1,
      "byteOffset": 67520,
      "componentType": 5126,
      "count": 4220,
      "max": [
        0.9974650144577026,
        0.9875795841217041
      ],
      "min": [
        0.005954999942332506,
        0.005774021148681641
      ],
      "type": "VEC2"
    },
    {
      "bufferView": 0,
      "componentType": 5125,
      "count": 21729,
      "type": "SCALAR"
    }
  ],
  "asset": {
    "extras": {
      "author": "Sufi_Artist (https://sketchfab.com/Sufi_Artist)",
      "license": "CC-BY-4.0 (http://creativecommons.org/licenses/by/4.0/)",
      "source": "https://sketchfab.com/3d-models/3d-cartoon-burger-with-colorful-toppings-b2ef06deaafd42419f07d4e633490dd1",
      "title": "3D Cartoon Burger with Colorful Toppings"
    },
    "generator": "Sketchfab-16.44.0",
    "version": "2.0"
  },
  "bufferViews": [
    {
      "buffer": 0,
      "byteLength": 86916,
      "name": "floatBufferViews",
      "target": 34963
    },
    {
      "buffer": 0,
      "byteLength": 101280,
      "byteOffset": 86916,
      "byteStride": 8,
      "name": "floatBufferViews",
      "target": 34962
    },
    {
      "buffer": 0,
      "byteLength": 101280,
      "byteOffset": 188196,
      "byteStride": 12,
      "name": "floatBufferViews",
      "target": 34962
    }
  ],
  "buffers": [
    {
      "byteLength": 289476,
      "uri": "scene.bin"
    }
  ],
  "extensionsRequired": [
    "KHR_materials_pbrSpecularGlossiness"
  ],
  "extensionsUsed": [
    "KHR_materials_pbrSpecularGlossiness"
  ],
  "images": [
    {
      "uri": "textures/material_diffuse.png"
    },
    {
      "uri": "textures/material_specularGlossiness.png"
    }
  ],
  "materials": [
    {
      "doubleSided": true,
      "extensions": {
        "KHR_materials_pbrSpecularGlossiness": {
          "diffuseFactor": [
            1.0,
            1.0,
            1.0,
            1.0
          ],
          "diffuseTexture": {
            "index": 0
          },
          "glossinessFactor": 1.0,
          "specularFactor": [
            1.0,
            1.0,
            1.0
          ],
          "specularGlossinessTexture": {
            "index": 1
          }
        }
      },
      "name": "material"
    }
  ],
  "meshes": [
    {
      "name": "Object_0",
      "primitives": [
        {
          "attributes": {
            "NORMAL": 1,
            "POSITION": 0,
            "TEXCOORD_0": 2,
            "TEXCOORD_1": 3,
            "TEXCOORD_2": 4
          },
          "indices": 5,
          "material": 0,
          "mode": 4
        }
      ]
    }
  ],
  "nodes": [
    {
      "children": [
        1
      ],
      "matrix": [
        1.0,
        0.0,
        0.0,
        0.0,
        0.0,
        2.220446049250313e-16,
        -1.0,
        0.0,
        0.0,
        1.0,
        2.220446049250313e-16,
        0.0,
        0.0,
        0.0,
        0.0,
        1.0
      ],
      "name": "Sketchfab_model"
    },
    {
      "children": [
        2
      ],
      "name": "root"
    },
    {
      "children": [
        3
      ],
      "matrix": [
        1.0,
        0.0,
        0.0,
        0.0,
        0.0,
        2.220446049250313e-16,
        1.0,
        0.0,
        0.0,
        -1.0,
        2.220446049250313e-16,
        0.0,
        0.0,
        0.0,
        0.0,
        1.0
      ],
      "name": "GLTF_SceneRootNode"
    },
    {
      "children": [
        4
      ],
      "name": "root_0"
    },
    {
      "children": [
        5
      ],
      "matrix": [
        0.020693227780531596,
        0.0003819641156669951,
        -0.0018988847998082027,
        0.0,
        3.123178774843344e-11,
        0.020375556065520224,
        0.004098580335606617,
        0.0,
        0.0019369207743105024,
        -0.004080742713325106,
        0.020286878644656097,
        0.0,
        -0.006529893726110458,
        -0.14231356978416443,
        0.5206171870231628,
        1.0
      ],
      "name": "node_id195_1"
    },
    {
      "mesh": 0,
      "name": "Object_5"
    }
  ],
  "samplers": [
    {
      "magFilter": 9729,
      "minFilter": 9987,
      "wrapS": 10497,
      "wrapT": 10497
    }
  ],
  "scene": 0,
  "scenes": [
    {
      "name": "Sketchfab_Scene",
      "nodes": [
        0
      ]
    }
  ],
  "textures": [
    {
      "sampler": 0,
      "source": 0
    },
    {
      "sampler": 0,
      "source": 1
    }
  ]
}
